<svg width="17" height="17" viewBox="0 0 17 17" fill="none" xmlns="http://www.w3.org/2000/svg">
<g id="Frame" clip-path="url(#clip0_236_195)">
<path id="Vector" d="M8.44727 2.13184C10.1712 2.13184 11.8245 2.81666 13.0435 4.03564C14.2624 5.25463 14.9473 6.90793 14.9473 8.63184C14.9473 10.3557 14.2624 12.009 13.0435 13.228C11.8245 14.447 10.1712 15.1318 8.44727 15.1318C6.72336 15.1318 5.07006 14.447 3.85107 13.228C2.63209 12.009 1.94727 10.3557 1.94727 8.63184C1.94727 6.90793 2.63209 5.25463 3.85107 4.03564C5.07006 2.81666 6.72336 2.13184 8.44727 2.13184ZM8.44727 16.6318C10.569 16.6318 12.6038 15.789 14.1041 14.2887C15.6044 12.7884 16.4473 10.7536 16.4473 8.63184C16.4473 6.5101 15.6044 4.47527 14.1041 2.97498C12.6038 1.47469 10.569 0.631836 8.44727 0.631836C6.32553 0.631836 4.2907 1.47469 2.79041 2.97498C1.29012 4.47527 0.447266 6.5101 0.447266 8.63184C0.447266 10.7536 1.29012 12.7884 2.79041 14.2887C4.2907 15.789 6.32553 16.6318 8.44727 16.6318ZM5.91602 6.10059C5.62227 6.39434 5.62227 6.86934 5.91602 7.15996L7.38477 8.62871L5.91602 10.0975C5.62227 10.3912 5.62227 10.8662 5.91602 11.1568C6.20977 11.4475 6.68477 11.4506 6.97539 11.1568L8.44414 9.68809L9.91289 11.1568C10.2066 11.4506 10.6816 11.4506 10.9723 11.1568C11.2629 10.8631 11.266 10.3881 10.9723 10.0975L9.50352 8.62871L10.9723 7.15996C11.266 6.86621 11.266 6.39121 10.9723 6.10059C10.6785 5.80996 10.2035 5.80684 9.91289 6.10059L8.44414 7.56934L6.97539 6.10059C6.68164 5.80684 6.20664 5.80684 5.91602 6.10059Z" fill="black"/>
</g>
<defs>
<clipPath id="clip0_236_195">
<rect width="16" height="16" fill="white" transform="translate(0.447266 0.631836)"/>
</clipPath>
</defs>
</svg>
