<svg width="17" height="17" viewBox="0 0 17 17" fill="none" xmlns="http://www.w3.org/2000/svg">
<g id="IMAGE" clip-path="url(#clip0_236_201)">
<path id="Vector" fill-rule="evenodd" clip-rule="evenodd" d="M16.4147 6.14114C16.3333 5.90395 16.1198 5.73782 15.8693 5.7373H11.0884L8.96271 1.30194C8.76722 0.893411 8.12531 0.893411 7.92983 1.30194L5.80809 5.7373H1.02519C0.706234 5.7373 0.447266 6.00739 0.447266 6.34122C0.447266 6.53138 0.531255 6.70117 0.663239 6.81192L0.664238 6.81297L4.55775 10.0687L3.07244 15.4988C3.05844 15.5484 3.05044 15.6053 3.05044 15.6644C3.05044 15.9977 3.30891 16.2683 3.62837 16.2683C3.74185 16.2683 3.84734 16.2343 3.93683 16.1753L3.93433 16.1768L8.44727 13.2293L12.9587 16.1768C13.0457 16.2338 13.1517 16.2677 13.2651 16.2677H13.2662C13.5851 16.2677 13.8436 15.9977 13.8436 15.6644C13.8436 15.6053 13.8356 15.5484 13.8206 15.4946L13.8216 15.4988L12.3353 10.0687L16.2293 6.81453C16.3627 6.70274 16.4473 6.53295 16.4473 6.34174C16.4473 6.27017 16.4353 6.20121 16.4133 6.13747L16.4147 6.14114Z" fill="#FFC217"/>
</g>
<defs>
<clipPath id="clip0_236_201">
<rect width="16" height="16" fill="white" transform="translate(0.447266 0.631836)"/>
</clipPath>
</defs>
</svg>
