<svg width="35" height="20" viewBox="0 0 35 20" fill="none" xmlns="http://www.w3.org/2000/svg">
<g id="Frame" clip-path="url(#clip0_291_78)">
<path id="Vector" d="M11.3751 13.75C17.6587 13.75 22.7501 10.6719 22.7501 6.875C22.7501 3.07812 17.6587 0 11.3751 0C5.09152 0 0.000110243 3.07812 0.000110243 6.875C0.000110243 8.38281 0.804016 9.77734 2.16574 10.9141C1.97433 11.2812 1.68995 11.6055 1.38917 11.8789C1.12667 12.1211 0.858704 12.3086 0.661829 12.4375C0.563391 12.5 0.48136 12.5508 0.426673 12.582C0.399329 12.5977 0.377454 12.6094 0.366516 12.6133L0.355579 12.6211C0.0547977 12.7812 -0.0764523 13.0625 0.0438602 13.3164C0.164173 13.5703 0.497766 13.75 0.87511 13.75C2.0673 13.75 3.27042 13.5312 4.2712 13.2617C4.77433 13.125 5.24464 12.9727 5.6548 12.8164C7.3337 13.4102 9.28605 13.75 11.3751 13.75ZM24.5001 6.875C24.5001 11.2617 19.0806 14.5664 12.6603 14.9609C13.9892 17.8672 18.397 20 23.6251 20C25.7142 20 27.6665 19.6602 29.3509 19.0664C29.761 19.2227 30.2259 19.375 30.729 19.5117C31.7298 19.7812 32.9329 20 34.1251 20C34.5024 20 34.8415 19.8242 34.9564 19.5664C35.0712 19.3086 34.9454 19.0273 34.6392 18.8672L34.6282 18.8594C34.6173 18.8516 34.5954 18.8438 34.5681 18.8281C34.5134 18.7969 34.4314 18.75 34.3329 18.6836C34.136 18.5547 33.8681 18.3672 33.6056 18.125C33.3048 17.8516 33.0204 17.5234 32.829 17.1602C34.1907 16.0273 34.9946 14.6328 34.9946 13.1211C34.9946 9.49609 30.3517 6.52344 24.4618 6.26562C24.4837 6.46484 24.4946 6.66797 24.4946 6.87109L24.5001 6.875Z" fill="black"/>
</g>
<defs>
<clipPath id="clip0_291_78">
<rect width="35" height="20" fill="white"/>
</clipPath>
</defs>
</svg>
