<svg width="30" height="20" viewBox="0 0 30 20" fill="none" xmlns="http://www.w3.org/2000/svg">
<g id="Frame" clip-path="url(#clip0_231_90)">
<path id="Vector" d="M29.0567 6.50781C29.2442 6.84766 29.086 7.22656 28.6817 7.46875L26.1445 9.00781C26.209 9.33203 26.2442 9.66406 26.2442 10C26.2442 10.3359 26.209 10.668 26.1445 10.9922L28.6817 12.5312C29.086 12.7734 29.2442 13.1523 29.0567 13.4922C28.7988 13.957 28.4883 14.4023 28.1309 14.832L27.8555 15.1484C27.4688 15.5781 27.0352 15.9844 26.5606 16.3672C26.2149 16.6484 25.6406 16.7422 25.125 16.6328L21.8613 15.9414C21.0762 16.3438 20.209 16.6797 19.2832 16.9336L18.5508 19.1641C18.4336 19.5195 18.0235 19.8008 17.4844 19.8594C16.6758 19.9492 15.8438 19.9961 14.9942 19.9961C14.1445 19.9961 13.3125 19.9492 12.5039 19.8594C11.9649 19.8008 11.5547 19.5195 11.4375 19.1641L10.7051 16.9336C9.77931 16.6797 8.91212 16.3438 8.12697 15.9414L4.86916 16.6367C4.35353 16.7461 3.77931 16.6484 3.43361 16.3711C2.959 15.9883 2.52541 15.582 2.13869 15.1523L1.8633 14.8359C1.50587 14.4062 1.19533 13.9609 0.937515 13.4961C0.750015 13.1562 0.908218 12.7773 1.31252 12.5352L3.84962 10.9961C3.78517 10.668 3.75002 10.3359 3.75002 10C3.75002 9.66406 3.78517 9.33203 3.84962 9.00781L1.31252 7.46875C0.908218 7.22656 0.750015 6.84766 0.937515 6.50781C1.19533 6.04297 1.50587 5.59766 1.8633 5.16797L2.13869 4.85156C2.52541 4.42188 2.959 4.01562 3.43361 3.63281C3.77931 3.35156 4.35353 3.25781 4.86916 3.36719L8.13283 4.05859C8.91798 3.65625 9.78517 3.32031 10.711 3.06641L11.4434 0.835938C11.5606 0.480469 11.9707 0.199219 12.5098 0.140625C13.3184 0.046875 14.1504 0 15 0C15.8496 0 16.6817 0.046875 17.4902 0.136719C18.0293 0.195312 18.4395 0.476562 18.5567 0.832031L19.2891 3.0625C20.2149 3.31641 21.082 3.65234 21.8672 4.05469L25.1309 3.36328C25.6465 3.25391 26.2207 3.35156 26.5664 3.62891C27.041 4.01172 27.4746 4.41797 27.8613 4.84766L28.1367 5.16406C28.4942 5.59375 28.8047 6.03906 29.0625 6.50391L29.0567 6.50781ZM15 13.125C16.2432 13.125 17.4355 12.7958 18.3146 12.2097C19.1937 11.6237 19.6875 10.8288 19.6875 10C19.6875 9.1712 19.1937 8.37634 18.3146 7.79029C17.4355 7.20424 16.2432 6.875 15 6.875C13.7568 6.875 12.5645 7.20424 11.6855 7.79029C10.8064 8.37634 10.3125 9.1712 10.3125 10C10.3125 10.8288 10.8064 11.6237 11.6855 12.2097C12.5645 12.7958 13.7568 13.125 15 13.125Z" fill="black"/>
</g>
<defs>
<clipPath id="clip0_231_90">
<rect width="30" height="20" fill="white"/>
</clipPath>
</defs>
</svg>
