<svg width="36" height="21" viewBox="0 0 36 21" fill="none" xmlns="http://www.w3.org/2000/svg">
<g id="Frame" clip-path="url(#clip0_231_78)">
<path id="Vector" d="M12.6973 0.631836C14.5538 0.631836 16.3343 1.15862 17.647 2.0963C18.9598 3.03398 19.6973 4.30575 19.6973 5.63184C19.6973 6.95792 18.9598 8.22969 17.647 9.16737C16.3343 10.1051 14.5538 10.6318 12.6973 10.6318C10.8407 10.6318 9.06027 10.1051 7.74752 9.16737C6.43476 8.22969 5.69727 6.95792 5.69727 5.63184C5.69727 4.30575 6.43476 3.03398 7.74752 2.0963C9.06027 1.15862 10.8407 0.631836 12.6973 0.631836ZM10.198 12.5068H15.1965C15.8418 12.5068 16.4762 12.5537 17.0832 12.6357C16.9684 13.3584 17.4879 14.0264 18.2754 14.3857C17.3676 14.7998 16.8152 15.6201 17.1816 16.4678C17.4004 16.9717 17.6957 17.4639 18.0785 17.9365C18.4613 18.4092 18.9098 18.8389 19.4129 19.2256C20.2715 19.8857 21.5785 19.9443 22.541 19.5654V19.6006C22.541 19.96 22.6887 20.3232 22.973 20.6279H2.07148C1.17461 20.6318 0.447266 20.1123 0.447266 19.4717C0.447266 15.624 4.81133 12.5068 10.198 12.5068ZM24.291 9.15527C24.291 8.88184 24.5371 8.63574 24.909 8.57715C25.4832 8.4834 26.0848 8.43262 26.6973 8.43262C27.3098 8.43262 27.9113 8.4834 28.4855 8.57715C28.8574 8.63574 29.1035 8.88184 29.1035 9.15527V10.3506C29.5355 10.4834 29.9457 10.6514 30.323 10.8506L31.6848 10.292C32.0184 10.1553 32.434 10.1865 32.6965 10.3857C33.1121 10.7021 33.4785 11.0576 33.7957 11.4482C34.1129 11.8389 34.359 12.2451 34.534 12.6592C34.6488 12.9209 34.4738 13.1943 34.1402 13.3311L32.773 13.8936C32.7949 14.0498 32.8113 14.21 32.8113 14.374C32.8113 14.5381 32.8004 14.6943 32.773 14.8545L34.1402 15.417C34.4738 15.5537 34.6434 15.8271 34.534 16.0889C34.3535 16.5029 34.1074 16.9092 33.7957 17.2998C33.484 17.6904 33.1121 18.0459 32.6965 18.3623C32.434 18.5615 32.0129 18.5928 31.6848 18.4561L30.323 17.8975C29.9457 18.0967 29.541 18.2646 29.1035 18.3975V19.5928C29.1035 19.8662 28.8574 20.1123 28.4855 20.1709C27.9113 20.2646 27.3098 20.3154 26.6973 20.3154C26.0848 20.3154 25.4832 20.2646 24.909 20.1709C24.5371 20.1123 24.291 19.8662 24.291 19.5928V18.3975C23.8535 18.2646 23.4379 18.0967 23.0605 17.8936L21.7098 18.4521C21.3762 18.5889 20.9605 18.5576 20.698 18.3584C20.2824 18.042 19.916 17.6865 19.5988 17.2959C19.2816 16.9053 19.0355 16.499 18.8605 16.085C18.7457 15.8232 18.9207 15.5498 19.2543 15.4131L20.6105 14.8545C20.5887 14.6943 20.5723 14.5342 20.5723 14.3701C20.5723 14.2061 20.5832 14.0459 20.6105 13.8857L19.2488 13.3271C18.9152 13.1904 18.7457 12.917 18.8551 12.6553C19.0355 12.2412 19.2762 11.835 19.5934 11.4443C19.9105 11.0537 20.277 10.6982 20.6926 10.3818C20.9551 10.1826 21.3707 10.1514 21.7043 10.2881L23.0605 10.8467C23.4379 10.6475 23.8535 10.4795 24.291 10.3428V9.15527ZM29.3277 14.3701C29.3439 14.1164 29.288 13.863 29.1632 13.6252C29.0385 13.3874 28.8475 13.1701 28.6019 12.9865C28.3563 12.8029 28.0612 12.6567 27.7343 12.5569C27.4074 12.457 27.0555 12.4056 26.7 12.4056C26.3445 12.4056 25.9926 12.457 25.6657 12.5569C25.3388 12.6567 25.0437 12.8029 24.7981 12.9865C24.5525 13.1701 24.3615 13.3874 24.2368 13.6252C24.112 13.863 24.0561 14.1164 24.0723 14.3701C24.0561 14.6238 24.112 14.8772 24.2368 15.115C24.3615 15.3528 24.5525 15.5701 24.7981 15.7537C25.0437 15.9373 25.3388 16.0835 25.6657 16.1833C25.9926 16.2832 26.3445 16.3347 26.7 16.3347C27.0555 16.3347 27.4074 16.2832 27.7343 16.1833C28.0612 16.0835 28.3563 15.9373 28.6019 15.7537C28.8475 15.5701 29.0385 15.3528 29.1632 15.115C29.288 14.8772 29.3439 14.6238 29.3277 14.3701Z" fill="black"/>
</g>
<defs>
<clipPath id="clip0_231_78">
<rect width="35" height="20" fill="white" transform="translate(0.447266 0.631836)"/>
</clipPath>
</defs>
</svg>
