<svg width="29" height="21" viewBox="0 0 29 21" fill="none" xmlns="http://www.w3.org/2000/svg">
<g id="Frame" clip-path="url(#clip0_231_84)">
<path id="Vector" d="M0.447266 3.75683V9.59668C0.447266 10.2607 0.866016 10.8975 1.61602 11.3662L12.616 18.2412C14.1785 19.2178 16.7098 19.2178 18.2723 18.2412L26.616 13.0264C28.1785 12.0498 28.1785 10.4678 26.616 9.49121L15.616 2.61621C14.866 2.14746 13.8473 1.88574 12.7848 1.88574H3.44727C1.79102 1.88183 0.447266 2.72168 0.447266 3.75683ZM7.44727 5.00683C7.9777 5.00683 8.48641 5.13853 8.86148 5.37295C9.23655 5.60737 9.44727 5.92531 9.44727 6.25683C9.44727 6.58836 9.23655 6.9063 8.86148 7.14072C8.48641 7.37514 7.9777 7.50683 7.44727 7.50683C6.91683 7.50683 6.40812 7.37514 6.03305 7.14072C5.65798 6.9063 5.44727 6.58836 5.44727 6.25683C5.44727 5.92531 5.65798 5.60737 6.03305 5.37295C6.40812 5.13853 6.91683 5.00683 7.44727 5.00683Z" fill="black"/>
</g>
<defs>
<clipPath id="clip0_231_84">
<rect width="28" height="20" fill="white" transform="translate(0.447266 0.631836)"/>
</clipPath>
</defs>
</svg>
