<svg width="34" height="21" viewBox="0 0 34 21" fill="none" xmlns="http://www.w3.org/2000/svg">
<g id="Frame" clip-path="url(#clip0_231_80)">
<path id="Vector" d="M4.11393 1.88184C2.09154 1.88184 0.447266 3.00293 0.447266 4.38184V5.63184H33.4473V4.38184C33.4473 3.00293 31.803 1.88184 29.7806 1.88184H4.11393ZM33.4473 9.38184H0.447266V16.8818C0.447266 18.2607 2.09154 19.3818 4.11393 19.3818H29.7806C31.803 19.3818 33.4473 18.2607 33.4473 16.8818V9.38184ZM6.86393 14.3818H10.5306C11.0348 14.3818 11.4473 14.6631 11.4473 15.0068C11.4473 15.3506 11.0348 15.6318 10.5306 15.6318H6.86393C6.35977 15.6318 5.94727 15.3506 5.94727 15.0068C5.94727 14.6631 6.35977 14.3818 6.86393 14.3818ZM13.2806 15.0068C13.2806 14.6631 13.6931 14.3818 14.1973 14.3818H21.5306C22.0348 14.3818 22.4473 14.6631 22.4473 15.0068C22.4473 15.3506 22.0348 15.6318 21.5306 15.6318H14.1973C13.6931 15.6318 13.2806 15.3506 13.2806 15.0068Z" fill="black"/>
</g>
<defs>
<clipPath id="clip0_231_80">
<rect width="33" height="20" fill="white" transform="translate(0.447266 0.631836)"/>
</clipPath>
</defs>
</svg>
