<svg width="29" height="21" viewBox="0 0 29 21" fill="none" xmlns="http://www.w3.org/2000/svg">
<g id="Frame" clip-path="url(#clip0_231_86)">
<path id="Vector" d="M6.44727 1.88184V3.13184H3.44727C1.79102 3.13184 0.447266 3.97168 0.447266 5.00684V6.88184H28.4473V5.00684C28.4473 3.97168 27.1035 3.13184 25.4473 3.13184H22.4473V1.88184C22.4473 1.19043 21.5535 0.631836 20.4473 0.631836C19.341 0.631836 18.4473 1.19043 18.4473 1.88184V3.13184H10.4473V1.88184C10.4473 1.19043 9.55352 0.631836 8.44727 0.631836C7.34102 0.631836 6.44727 1.19043 6.44727 1.88184ZM28.4473 8.13184H0.447266V18.7568C0.447266 19.792 1.79102 20.6318 3.44727 20.6318H25.4473C27.1035 20.6318 28.4473 19.792 28.4473 18.7568V8.13184Z" fill="black"/>
</g>
<defs>
<clipPath id="clip0_231_86">
<rect width="28" height="20" fill="white" transform="translate(0.447266 0.631836)"/>
</clipPath>
</defs>
</svg>
