<svg width="30" height="20" viewBox="0 0 30 20" fill="none" xmlns="http://www.w3.org/2000/svg">
<g id="Frame">
<path id="Vector" d="M29.4492 10.8828C30.1816 10.3945 30.1816 9.60156 29.4492 9.11328L21.9492 4.11328C21.2168 3.625 20.0273 3.625 19.2949 4.11328C18.5625 4.60156 18.5625 5.39453 19.2949 5.88281L23.5957 8.75H11.25C10.2129 8.75 9.375 9.30859 9.375 10C9.375 10.6914 10.2129 11.25 11.25 11.25H23.5957L19.2949 14.1172C18.5625 14.6055 18.5625 15.3984 19.2949 15.8867C20.0273 16.375 21.2168 16.375 21.9492 15.8867L29.4492 10.8867V10.8828ZM9.375 3.75C10.4121 3.75 11.25 3.19141 11.25 2.5C11.25 1.80859 10.4121 1.25 9.375 1.25H5.625C2.51953 1.25 0 2.92969 0 5V15C0 17.0703 2.51953 18.75 5.625 18.75H9.375C10.4121 18.75 11.25 18.1914 11.25 17.5C11.25 16.8086 10.4121 16.25 9.375 16.25H5.625C4.58789 16.25 3.75 15.6914 3.75 15V5C3.75 4.30859 4.58789 3.75 5.625 3.75H9.375Z" fill="black"/>
</g>
</svg>
