<svg width="31" height="21" viewBox="0 0 31 21" fill="none" xmlns="http://www.w3.org/2000/svg">
<g id="Frame" clip-path="url(#clip0_231_82)">
<path id="Vector" d="M2.79102 2.50684C2.01172 2.50684 1.38477 2.9248 1.38477 3.44434V5.31934C1.38477 5.83887 2.01172 6.25684 2.79102 6.25684H5.60352C6.38281 6.25684 7.00977 5.83887 7.00977 5.31934V3.44434C7.00977 2.9248 6.38281 2.50684 5.60352 2.50684H2.79102ZM11.6973 3.13184C10.6602 3.13184 9.82227 3.69043 9.82227 4.38184C9.82227 5.07324 10.6602 5.63184 11.6973 5.63184H28.5723C29.6094 5.63184 30.4473 5.07324 30.4473 4.38184C30.4473 3.69043 29.6094 3.13184 28.5723 3.13184H11.6973ZM11.6973 9.38184C10.6602 9.38184 9.82227 9.94043 9.82227 10.6318C9.82227 11.3232 10.6602 11.8818 11.6973 11.8818H28.5723C29.6094 11.8818 30.4473 11.3232 30.4473 10.6318C30.4473 9.94043 29.6094 9.38184 28.5723 9.38184H11.6973ZM11.6973 15.6318C10.6602 15.6318 9.82227 16.1904 9.82227 16.8818C9.82227 17.5732 10.6602 18.1318 11.6973 18.1318H28.5723C29.6094 18.1318 30.4473 17.5732 30.4473 16.8818C30.4473 16.1904 29.6094 15.6318 28.5723 15.6318H11.6973ZM1.38477 9.69434V11.5693C1.38477 12.0889 2.01172 12.5068 2.79102 12.5068H5.60352C6.38281 12.5068 7.00977 12.0889 7.00977 11.5693V9.69434C7.00977 9.1748 6.38281 8.75684 5.60352 8.75684H2.79102C2.01172 8.75684 1.38477 9.1748 1.38477 9.69434ZM2.79102 15.0068C2.01172 15.0068 1.38477 15.4248 1.38477 15.9443V17.8193C1.38477 18.3389 2.01172 18.7568 2.79102 18.7568H5.60352C6.38281 18.7568 7.00977 18.3389 7.00977 17.8193V15.9443C7.00977 15.4248 6.38281 15.0068 5.60352 15.0068H2.79102Z" fill="black"/>
</g>
<defs>
<clipPath id="clip0_231_82">
<rect width="30" height="20" fill="white" transform="translate(0.447266 0.631836)"/>
</clipPath>
</defs>
</svg>
