<svg width="16" height="17" viewBox="0 0 16 17" fill="none" xmlns="http://www.w3.org/2000/svg">
<g id="Frame" clip-path="url(#clip0_291_126)">
<path id="Vector" d="M8.6668 12.0417C8.6668 11.6504 8.36832 11.3333 8.00016 11.3333C7.63197 11.3333 7.3335 11.6504 7.3335 12.0417C7.3335 12.4329 7.63197 12.75 8.00016 12.75C8.36832 12.75 8.6668 12.4329 8.6668 12.0417Z" fill="#111820"/>
<path id="Vector_2" d="M6.61884 6.63807C6.7676 6.24293 7.27358 5.66667 7.99985 5.66667C8.49177 5.66667 8.87481 5.87208 9.09857 6.1265C9.32321 6.38184 9.36769 6.64944 9.30185 6.85934C9.22345 7.10903 8.95985 7.34979 8.51385 7.61785C8.45017 7.65612 8.36553 7.70454 8.27713 7.75511C8.14385 7.83137 8.00193 7.91255 7.91072 7.97105C7.82173 8.02812 7.70568 8.10821 7.60584 8.2108C7.51871 8.30034 7.33319 8.51896 7.33319 8.8542V9.9167C7.33319 10.3079 7.63166 10.625 7.99985 10.625C8.36801 10.625 8.66649 10.3079 8.66649 9.9167V9.14226C8.72457 9.10716 8.78217 9.07469 8.84889 9.03703C8.93425 8.98901 9.03465 8.93248 9.17033 8.85088C9.60817 8.58772 10.3118 8.12014 10.5667 7.30733C10.8171 6.50925 10.5611 5.71435 10.0727 5.15919C9.58353 4.6031 8.84121 4.25 7.99985 4.25C6.59279 4.25 5.67656 5.32652 5.38087 6.11193C5.24412 6.47516 5.4104 6.88738 5.75226 7.03267C6.09412 7.17796 6.48209 7.00129 6.61884 6.63807Z" fill="#111820"/>
<path id="Vector_3" d="M8 17C12.4182 17 16 13.1944 16 8.5C16 3.80558 12.4182 0 8 0C3.58172 0 0 3.80558 0 8.5C0 13.1944 3.58172 17 8 17ZM8 15.5833C4.3181 15.5833 1.33334 12.412 1.33334 8.5C1.33334 4.58799 4.3181 1.41667 8 1.41667C11.6819 1.41667 14.6666 4.58799 14.6666 8.5C14.6666 12.412 11.6819 15.5833 8 15.5833Z" fill="#111820"/>
</g>
<defs>
<clipPath id="clip0_291_126">
<rect width="16" height="17" fill="white"/>
</clipPath>
</defs>
</svg>
